<mxfile host="65bd71144e">
    <diagram id="de7e0142-ebd7-6527-81d8-eda288712875" name="ページ1">
        <mxGraphModel dx="1386" dy="779" grid="1" gridSize="10" guides="1" tooltips="1" connect="1" arrows="1" fold="1" page="1" pageScale="1" pageWidth="827" pageHeight="1169" math="0" shadow="0">
            <root>
                <mxCell id="0"/>
                <mxCell id="1" parent="0"/>
                <mxCell id="2f11c9b0a13c240d-14" style="edgeStyle=orthogonalEdgeStyle;rounded=0;html=1;jettySize=auto;orthogonalLoop=1;" parent="1" source="2f11c9b0a13c240d-3" target="2f11c9b0a13c240d-13" edge="1">
                    <mxGeometry relative="1" as="geometry"/>
                </mxCell>
                <mxCell id="2f11c9b0a13c240d-3" value="Inbox" style="rounded=1;whiteSpace=wrap;html=1;" parent="1" vertex="1">
                    <mxGeometry x="281.5" y="35" width="116" height="60" as="geometry"/>
                </mxCell>
                <mxCell id="31" style="edgeStyle=orthogonalEdgeStyle;rounded=0;html=1;jettySize=auto;orthogonalLoop=1;" parent="1" source="2f11c9b0a13c240d-4" target="10" edge="1">
                    <mxGeometry relative="1" as="geometry">
                        <Array as="points">
                            <mxPoint x="146" y="388"/>
                            <mxPoint x="213" y="388"/>
                        </Array>
                    </mxGeometry>
                </mxCell>
                <mxCell id="2f11c9b0a13c240d-4" value="1" style="whiteSpace=wrap;html=1;aspect=fixed;" parent="1" vertex="1">
                    <mxGeometry x="108" y="235" width="76" height="80" as="geometry"/>
                </mxCell>
                <mxCell id="32" style="edgeStyle=orthogonalEdgeStyle;rounded=0;html=1;jettySize=auto;orthogonalLoop=1;" parent="1" source="2f11c9b0a13c240d-5" target="10" edge="1">
                    <mxGeometry relative="1" as="geometry">
                        <Array as="points">
                            <mxPoint x="276" y="390"/>
                            <mxPoint x="213" y="390"/>
                        </Array>
                    </mxGeometry>
                </mxCell>
                <mxCell id="2f11c9b0a13c240d-5" value="2" style="whiteSpace=wrap;html=1;aspect=fixed;" parent="1" vertex="1">
                    <mxGeometry x="238" y="235" width="76" height="80" as="geometry"/>
                </mxCell>
                <mxCell id="33" style="edgeStyle=orthogonalEdgeStyle;rounded=0;html=1;entryX=0.5;entryY=0;jettySize=auto;orthogonalLoop=1;" parent="1" source="2f11c9b0a13c240d-7" target="10" edge="1">
                    <mxGeometry relative="1" as="geometry">
                        <Array as="points">
                            <mxPoint x="414" y="390"/>
                            <mxPoint x="213" y="390"/>
                        </Array>
                    </mxGeometry>
                </mxCell>
                <mxCell id="2f11c9b0a13c240d-7" value="3&lt;br&gt;" style="whiteSpace=wrap;html=1;aspect=fixed;" parent="1" vertex="1">
                    <mxGeometry x="375.5" y="235" width="76" height="80" as="geometry"/>
                </mxCell>
                <mxCell id="2f11c9b0a13c240d-16" style="edgeStyle=orthogonalEdgeStyle;rounded=0;html=1;jettySize=auto;orthogonalLoop=1;" parent="1" source="2f11c9b0a13c240d-13" target="2f11c9b0a13c240d-5" edge="1">
                    <mxGeometry relative="1" as="geometry"/>
                </mxCell>
                <mxCell id="2f11c9b0a13c240d-17" style="edgeStyle=orthogonalEdgeStyle;rounded=0;html=1;jettySize=auto;orthogonalLoop=1;" parent="1" source="2f11c9b0a13c240d-13" target="2f11c9b0a13c240d-7" edge="1">
                    <mxGeometry relative="1" as="geometry"/>
                </mxCell>
                <mxCell id="2f11c9b0a13c240d-18" style="edgeStyle=orthogonalEdgeStyle;rounded=0;html=1;entryX=0.5;entryY=0;jettySize=auto;orthogonalLoop=1;" parent="1" source="2f11c9b0a13c240d-13" target="2f11c9b0a13c240d-4" edge="1">
                    <mxGeometry relative="1" as="geometry"/>
                </mxCell>
                <mxCell id="23" style="edgeStyle=orthogonalEdgeStyle;rounded=0;html=1;entryX=0.5;entryY=0;jettySize=auto;orthogonalLoop=1;" parent="1" source="2f11c9b0a13c240d-13" target="22" edge="1">
                    <mxGeometry relative="1" as="geometry"/>
                </mxCell>
                <mxCell id="2f11c9b0a13c240d-13" value="Categoryの設定（どれにも当てはまらなければ削除する）" style="rounded=0;whiteSpace=wrap;html=1;" parent="1" vertex="1">
                    <mxGeometry x="173.5" y="135" width="332" height="60" as="geometry"/>
                </mxCell>
                <mxCell id="2f11c9b0a13c240d-20" value="Project: Delegated" style="shape=process;whiteSpace=wrap;html=1;backgroundOutline=1;" parent="1" vertex="1">
                    <mxGeometry x="325" y="460" width="136" height="60" as="geometry"/>
                </mxCell>
                <mxCell id="7e1dd77dc8d4df1c-9" style="edgeStyle=orthogonalEdgeStyle;rounded=0;html=1;jettySize=auto;orthogonalLoop=1;" parent="1" source="2f11c9b0a13c240d-33" target="2f11c9b0a13c240d-38" edge="1">
                    <mxGeometry relative="1" as="geometry"/>
                </mxCell>
                <mxCell id="42" style="edgeStyle=orthogonalEdgeStyle;rounded=0;html=1;entryX=0;entryY=0.5;jettySize=auto;orthogonalLoop=1;" parent="1" source="2f11c9b0a13c240d-33" target="40" edge="1">
                    <mxGeometry relative="1" as="geometry"/>
                </mxCell>
                <mxCell id="2f11c9b0a13c240d-33" value="今すぐ実行可能か？" style="rounded=0;whiteSpace=wrap;html=1;" parent="1" vertex="1">
                    <mxGeometry x="147" y="720" width="132" height="60" as="geometry"/>
                </mxCell>
                <mxCell id="2f11c9b0a13c240d-38" value="Status: Next Action" style="shape=process;whiteSpace=wrap;html=1;backgroundOutline=1;" parent="1" vertex="1">
                    <mxGeometry x="140" y="869" width="146" height="60" as="geometry"/>
                </mxCell>
                <mxCell id="7e1dd77dc8d4df1c-39" value="&lt;ol style=&quot;font-size: 16px&quot;&gt;&lt;li&gt;やらなければいけないこと（時間的制限あり）&lt;/li&gt;&lt;li&gt;やらなければいけないこと（時間的制限なし）&lt;/li&gt;&lt;li&gt;やりたいこと（時間を割く）&lt;/li&gt;&lt;li&gt;やりたいこと（時間が余ったらやる）&lt;/li&gt;&lt;/ol&gt;" style="text;strokeColor=none;fillColor=none;html=1;whiteSpace=wrap;verticalAlign=middle;overflow=hidden;" parent="1" vertex="1">
                    <mxGeometry x="540" y="51" width="252" height="179" as="geometry"/>
                </mxCell>
                <mxCell id="9" style="edgeStyle=orthogonalEdgeStyle;rounded=0;html=1;jettySize=auto;orthogonalLoop=1;" parent="1" edge="1">
                    <mxGeometry relative="1" as="geometry">
                        <mxPoint x="620" y="448" as="targetPoint"/>
                        <mxPoint x="620" y="448" as="sourcePoint"/>
                    </mxGeometry>
                </mxCell>
                <mxCell id="34" style="edgeStyle=orthogonalEdgeStyle;rounded=0;html=1;entryX=0;entryY=0.5;jettySize=auto;orthogonalLoop=1;" parent="1" source="10" target="2f11c9b0a13c240d-20" edge="1">
                    <mxGeometry relative="1" as="geometry"/>
                </mxCell>
                <mxCell id="35" style="edgeStyle=orthogonalEdgeStyle;rounded=0;html=1;jettySize=auto;orthogonalLoop=1;" parent="1" source="10" target="27" edge="1">
                    <mxGeometry relative="1" as="geometry"/>
                </mxCell>
                <mxCell id="10" value="誰かに任せるか？" style="rounded=0;whiteSpace=wrap;html=1;" parent="1" vertex="1">
                    <mxGeometry x="150" y="460" width="126" height="60" as="geometry"/>
                </mxCell>
                <mxCell id="48" style="edgeStyle=orthogonalEdgeStyle;rounded=0;html=1;entryX=0.5;entryY=0;jettySize=auto;orthogonalLoop=1;" parent="1" source="22" target="47" edge="1">
                    <mxGeometry relative="1" as="geometry"/>
                </mxCell>
                <mxCell id="22" value="4" style="whiteSpace=wrap;html=1;aspect=fixed;" parent="1" vertex="1">
                    <mxGeometry x="500" y="235" width="80" height="80" as="geometry"/>
                </mxCell>
                <mxCell id="37" style="edgeStyle=orthogonalEdgeStyle;rounded=0;html=1;entryX=0;entryY=0.5;jettySize=auto;orthogonalLoop=1;" parent="1" source="27" target="36" edge="1">
                    <mxGeometry relative="1" as="geometry"/>
                </mxCell>
                <mxCell id="39" style="edgeStyle=orthogonalEdgeStyle;rounded=0;html=1;jettySize=auto;orthogonalLoop=1;" parent="1" source="27" target="2f11c9b0a13c240d-33" edge="1">
                    <mxGeometry relative="1" as="geometry"/>
                </mxCell>
                <mxCell id="27" value="具体的な部分まで細分化が必要か？" style="rounded=0;whiteSpace=wrap;html=1;" parent="1" vertex="1">
                    <mxGeometry x="110.5" y="584.5" width="205" height="60" as="geometry"/>
                </mxCell>
                <mxCell id="38" style="edgeStyle=orthogonalEdgeStyle;rounded=0;html=1;entryX=1;entryY=0.5;jettySize=auto;orthogonalLoop=1;" parent="1" source="36" target="27" edge="1">
                    <mxGeometry relative="1" as="geometry"/>
                </mxCell>
                <mxCell id="36" value="Label: GDPS" style="shape=hexagon;perimeter=hexagonPerimeter2;whiteSpace=wrap;html=1;" parent="1" vertex="1">
                    <mxGeometry x="363" y="574.5" width="120" height="80" as="geometry"/>
                </mxCell>
                <mxCell id="40" value="Project: On Hold" style="shape=process;whiteSpace=wrap;html=1;backgroundOutline=1;" parent="1" vertex="1">
                    <mxGeometry x="329.5" y="720" width="127" height="60" as="geometry"/>
                </mxCell>
                <mxCell id="47" value="Projects: Someday" style="shape=process;whiteSpace=wrap;html=1;backgroundOutline=1;" parent="1" vertex="1">
                    <mxGeometry x="465" y="370" width="150" height="60" as="geometry"/>
                </mxCell>
            </root>
        </mxGraphModel>
    </diagram>
</mxfile>